<mxfile host="app.diagrams.net" modified="2022-08-22T10:56:12.371Z" agent="5.0 (Macintosh; Intel Mac OS X 10_15_7) AppleWebKit/537.36 (KHTML, like Gecko) Chrome/103.0.0.0 Safari/537.36" etag="Y-gaiSmkoebty5ELpx--" version="20.2.6" type="github">
  <diagram id="UUQvVdrH6aQOZm1tNJSQ" name="Page-1">
    <mxGraphModel dx="1426" dy="794" grid="1" gridSize="10" guides="1" tooltips="1" connect="1" arrows="1" fold="1" page="1" pageScale="1" pageWidth="850" pageHeight="1100" math="0" shadow="0">
      <root>
        <mxCell id="0" />
        <mxCell id="1" parent="0" />
        <mxCell id="jACUE-sH9pIUnQXZyGSs-42" value="" style="rounded=0;whiteSpace=wrap;html=1;" parent="1" vertex="1">
          <mxGeometry x="110" y="30" width="630" height="90" as="geometry" />
        </mxCell>
        <mxCell id="jACUE-sH9pIUnQXZyGSs-1" value="Lead" style="whiteSpace=wrap;html=1;align=center;" parent="1" vertex="1">
          <mxGeometry x="240" y="50" width="100" height="40" as="geometry" />
        </mxCell>
        <mxCell id="jACUE-sH9pIUnQXZyGSs-2" value="Lead Source" style="whiteSpace=wrap;html=1;align=center;" parent="1" vertex="1">
          <mxGeometry x="470" y="50" width="100" height="40" as="geometry" />
        </mxCell>
        <mxCell id="jACUE-sH9pIUnQXZyGSs-4" value="" style="edgeStyle=entityRelationEdgeStyle;fontSize=12;html=1;endArrow=ERoneToMany;rounded=0;entryX=1;entryY=0.5;entryDx=0;entryDy=0;exitX=0;exitY=0.5;exitDx=0;exitDy=0;exitPerimeter=0;startArrow=none;" parent="1" source="jACUE-sH9pIUnQXZyGSs-40" target="jACUE-sH9pIUnQXZyGSs-1" edge="1">
          <mxGeometry width="100" height="100" relative="1" as="geometry">
            <mxPoint x="370" y="460" as="sourcePoint" />
            <mxPoint x="470" y="360" as="targetPoint" />
          </mxGeometry>
        </mxCell>
        <mxCell id="jACUE-sH9pIUnQXZyGSs-5" value="dim_lead" style="swimlane;childLayout=stackLayout;horizontal=1;startSize=30;horizontalStack=0;rounded=1;fontSize=14;fontStyle=0;strokeWidth=2;resizeParent=0;resizeLast=1;shadow=0;dashed=0;align=center;" parent="1" vertex="1">
          <mxGeometry x="140" y="420" width="110" height="130" as="geometry" />
        </mxCell>
        <mxCell id="jACUE-sH9pIUnQXZyGSs-6" value="lead_key&#xa;client_id&#xa;property_id&#xa;lead_id&#xa;customer_id&#xa;lead_created_on" style="align=left;strokeColor=none;fillColor=none;spacingLeft=4;fontSize=12;verticalAlign=top;resizable=0;rotatable=0;part=1;" parent="jACUE-sH9pIUnQXZyGSs-5" vertex="1">
          <mxGeometry y="30" width="110" height="100" as="geometry" />
        </mxCell>
        <mxCell id="jACUE-sH9pIUnQXZyGSs-27" value="fact_lead" style="swimlane;childLayout=stackLayout;horizontal=1;startSize=30;horizontalStack=0;rounded=1;fontSize=14;fontStyle=0;strokeWidth=2;resizeParent=0;resizeLast=1;shadow=0;dashed=0;align=center;" parent="1" vertex="1">
          <mxGeometry x="360" y="340" width="160" height="120" as="geometry" />
        </mxCell>
        <mxCell id="jACUE-sH9pIUnQXZyGSs-28" value="fact_lead_key&#xa;client_key&#xa;property_key&#xa;lead_source_key&#xa;lead_key&#xa;lead_count" style="align=left;strokeColor=none;fillColor=none;spacingLeft=4;fontSize=12;verticalAlign=top;resizable=0;rotatable=0;part=1;" parent="jACUE-sH9pIUnQXZyGSs-27" vertex="1">
          <mxGeometry y="30" width="160" height="90" as="geometry" />
        </mxCell>
        <mxCell id="jACUE-sH9pIUnQXZyGSs-29" value="" style="edgeStyle=entityRelationEdgeStyle;fontSize=12;html=1;endArrow=ERmandOne;startArrow=ERmandOne;rounded=0;exitX=1.018;exitY=0.34;exitDx=0;exitDy=0;exitPerimeter=0;entryX=0;entryY=0.5;entryDx=0;entryDy=0;" parent="1" source="jACUE-sH9pIUnQXZyGSs-6" target="jACUE-sH9pIUnQXZyGSs-27" edge="1">
          <mxGeometry width="100" height="100" relative="1" as="geometry">
            <mxPoint x="260" y="450" as="sourcePoint" />
            <mxPoint x="360" y="333" as="targetPoint" />
          </mxGeometry>
        </mxCell>
        <mxCell id="jACUE-sH9pIUnQXZyGSs-30" value="dim_lead_source" style="swimlane;childLayout=stackLayout;horizontal=1;startSize=30;horizontalStack=0;rounded=1;fontSize=14;fontStyle=0;strokeWidth=2;resizeParent=0;resizeLast=1;shadow=0;dashed=0;align=center;" parent="1" vertex="1">
          <mxGeometry x="630" y="410" width="160" height="120" as="geometry" />
        </mxCell>
        <mxCell id="jACUE-sH9pIUnQXZyGSs-31" value="lead_source_key&#xa;client_id&#xa;lead_source_id&#xa;lead_source_name&#xa;default_lead_source_name" style="align=left;strokeColor=none;fillColor=none;spacingLeft=4;fontSize=12;verticalAlign=top;resizable=0;rotatable=0;part=1;" parent="jACUE-sH9pIUnQXZyGSs-30" vertex="1">
          <mxGeometry y="30" width="160" height="90" as="geometry" />
        </mxCell>
        <mxCell id="jACUE-sH9pIUnQXZyGSs-33" value="dim_client" style="swimlane;childLayout=stackLayout;horizontal=1;startSize=30;horizontalStack=0;rounded=1;fontSize=14;fontStyle=0;strokeWidth=2;resizeParent=0;resizeLast=1;shadow=0;dashed=0;align=center;" parent="1" vertex="1">
          <mxGeometry x="130" y="160" width="150" height="110" as="geometry" />
        </mxCell>
        <mxCell id="jACUE-sH9pIUnQXZyGSs-34" value="client_key&#xa;client_id&#xa;client_name&#xa;client_status" style="align=left;strokeColor=none;fillColor=none;spacingLeft=4;fontSize=12;verticalAlign=top;resizable=0;rotatable=0;part=1;" parent="jACUE-sH9pIUnQXZyGSs-33" vertex="1">
          <mxGeometry y="30" width="150" height="80" as="geometry" />
        </mxCell>
        <mxCell id="jACUE-sH9pIUnQXZyGSs-35" value="" style="edgeStyle=entityRelationEdgeStyle;fontSize=12;html=1;endArrow=ERzeroToMany;endFill=1;rounded=0;entryX=1;entryY=0.5;entryDx=0;entryDy=0;exitX=0;exitY=0.5;exitDx=0;exitDy=0;" parent="1" source="jACUE-sH9pIUnQXZyGSs-31" target="jACUE-sH9pIUnQXZyGSs-28" edge="1">
          <mxGeometry width="100" height="100" relative="1" as="geometry">
            <mxPoint x="370" y="460" as="sourcePoint" />
            <mxPoint x="470" y="360" as="targetPoint" />
          </mxGeometry>
        </mxCell>
        <mxCell id="jACUE-sH9pIUnQXZyGSs-36" value="" style="edgeStyle=entityRelationEdgeStyle;fontSize=12;html=1;endArrow=ERoneToMany;rounded=0;entryX=0;entryY=0.25;entryDx=0;entryDy=0;exitX=1;exitY=0.5;exitDx=0;exitDy=0;" parent="1" source="jACUE-sH9pIUnQXZyGSs-34" target="jACUE-sH9pIUnQXZyGSs-27" edge="1">
          <mxGeometry width="100" height="100" relative="1" as="geometry">
            <mxPoint x="330" y="270" as="sourcePoint" />
            <mxPoint x="350" y="360" as="targetPoint" />
          </mxGeometry>
        </mxCell>
        <mxCell id="jACUE-sH9pIUnQXZyGSs-37" value="dim_property" style="swimlane;childLayout=stackLayout;horizontal=1;startSize=30;horizontalStack=0;rounded=1;fontSize=14;fontStyle=0;strokeWidth=2;resizeParent=0;resizeLast=1;shadow=0;dashed=0;align=center;" parent="1" vertex="1">
          <mxGeometry x="600" y="150" width="170" height="200" as="geometry" />
        </mxCell>
        <mxCell id="jACUE-sH9pIUnQXZyGSs-38" value="property_key&#xa;client_id&#xa;property_id&#xa;property_name&#xa;property_type&#xa;property_timezone&#xa;property_latitude&#xa;property_longitude&#xa;property_address&#xa;property_state&#xa;property_postal_code" style="align=left;strokeColor=none;fillColor=none;spacingLeft=4;fontSize=12;verticalAlign=top;resizable=0;rotatable=0;part=1;" parent="jACUE-sH9pIUnQXZyGSs-37" vertex="1">
          <mxGeometry y="30" width="170" height="170" as="geometry" />
        </mxCell>
        <mxCell id="jACUE-sH9pIUnQXZyGSs-39" value="" style="edgeStyle=entityRelationEdgeStyle;fontSize=12;html=1;endArrow=ERoneToMany;rounded=0;entryX=1;entryY=0.25;entryDx=0;entryDy=0;exitX=0;exitY=0.408;exitDx=0;exitDy=0;exitPerimeter=0;" parent="1" source="jACUE-sH9pIUnQXZyGSs-38" target="jACUE-sH9pIUnQXZyGSs-27" edge="1">
          <mxGeometry width="100" height="100" relative="1" as="geometry">
            <mxPoint x="370" y="460" as="sourcePoint" />
            <mxPoint x="470" y="360" as="targetPoint" />
          </mxGeometry>
        </mxCell>
        <mxCell id="jACUE-sH9pIUnQXZyGSs-40" value="has a" style="text;strokeColor=none;fillColor=none;spacingLeft=4;spacingRight=4;overflow=hidden;rotatable=0;points=[[0,0.5],[1,0.5]];portConstraint=eastwest;fontSize=12;" parent="1" vertex="1">
          <mxGeometry x="380" y="55" width="40" height="30" as="geometry" />
        </mxCell>
        <mxCell id="jACUE-sH9pIUnQXZyGSs-41" value="" style="edgeStyle=entityRelationEdgeStyle;fontSize=12;html=1;endArrow=none;rounded=0;entryX=1;entryY=0.5;entryDx=0;entryDy=0;exitX=0;exitY=0.5;exitDx=0;exitDy=0;exitPerimeter=0;" parent="1" source="jACUE-sH9pIUnQXZyGSs-2" target="jACUE-sH9pIUnQXZyGSs-40" edge="1">
          <mxGeometry width="100" height="100" relative="1" as="geometry">
            <mxPoint x="470" y="70" as="sourcePoint" />
            <mxPoint x="340" y="70" as="targetPoint" />
          </mxGeometry>
        </mxCell>
        <mxCell id="jACUE-sH9pIUnQXZyGSs-43" value="&lt;b&gt;&lt;font style=&quot;font-size: 18px;&quot;&gt;Conceptual&lt;/font&gt;&lt;/b&gt;" style="text;html=1;strokeColor=none;fillColor=none;align=center;verticalAlign=middle;whiteSpace=wrap;rounded=0;" parent="1" vertex="1">
          <mxGeometry x="10" y="10" width="150" height="20" as="geometry" />
        </mxCell>
        <mxCell id="jACUE-sH9pIUnQXZyGSs-44" value="&lt;b&gt;&lt;font style=&quot;font-size: 18px;&quot;&gt;Logical&lt;/font&gt;&lt;/b&gt;" style="text;html=1;strokeColor=none;fillColor=none;align=center;verticalAlign=middle;whiteSpace=wrap;rounded=0;" parent="1" vertex="1">
          <mxGeometry x="10" y="140" width="150" height="20" as="geometry" />
        </mxCell>
        <mxCell id="jACUE-sH9pIUnQXZyGSs-60" value="" style="shape=tableRow;horizontal=0;startSize=0;swimlaneHead=0;swimlaneBody=0;fillColor=none;collapsible=0;dropTarget=0;points=[[0,0.5],[1,0.5]];portConstraint=eastwest;top=0;left=0;right=0;bottom=0;fontSize=18;" parent="1" vertex="1">
          <mxGeometry x="180" y="700" width="280" height="40" as="geometry" />
        </mxCell>
        <mxCell id="jACUE-sH9pIUnQXZyGSs-61" value="" style="shape=partialRectangle;connectable=0;fillColor=none;top=0;left=0;bottom=0;right=0;editable=1;overflow=hidden;fontSize=18;" parent="jACUE-sH9pIUnQXZyGSs-60" vertex="1">
          <mxGeometry width="30" height="40" as="geometry">
            <mxRectangle width="30" height="40" as="alternateBounds" />
          </mxGeometry>
        </mxCell>
        <mxCell id="jACUE-sH9pIUnQXZyGSs-63" value="" style="shape=tableRow;horizontal=0;startSize=0;swimlaneHead=0;swimlaneBody=0;fillColor=none;collapsible=0;dropTarget=0;points=[[0,0.5],[1,0.5]];portConstraint=eastwest;top=0;left=0;right=0;bottom=0;fontSize=18;" parent="1" vertex="1">
          <mxGeometry x="180" y="730" width="280" height="40" as="geometry" />
        </mxCell>
        <mxCell id="jACUE-sH9pIUnQXZyGSs-64" value="" style="shape=partialRectangle;connectable=0;fillColor=none;top=0;left=0;bottom=0;right=0;editable=1;overflow=hidden;fontSize=18;" parent="jACUE-sH9pIUnQXZyGSs-63" vertex="1">
          <mxGeometry width="30" height="40" as="geometry">
            <mxRectangle width="30" height="40" as="alternateBounds" />
          </mxGeometry>
        </mxCell>
      </root>
    </mxGraphModel>
  </diagram>
</mxfile>
